<svg width="22" height="20" viewBox="0 0 22 20" fill="none" xmlns="http://www.w3.org/2000/svg">
<path d="M21.001 8H1.00098M10.001 17L17.801 17C18.9211 17 19.4811 17 19.909 16.782C20.2853 16.5903 20.5912 16.2843 20.783 15.908C21.001 15.4802 21.001 14.9201 21.001 13.8V6.2C21.001 5.0799 21.001 4.51984 20.783 4.09202C20.5912 3.7157 20.2853 3.40974 19.909 3.21799C19.4811 3 18.9211 3 17.801 3H16.001M10.001 17L12.001 19M10.001 17L12.001 15M6.00098 17H4.20098C3.08087 17 2.52082 17 2.093 16.782C1.71667 16.5903 1.41071 16.2843 1.21896 15.908C1.00098 15.4802 1.00098 14.9201 1.00098 13.8V6.2C1.00098 5.0799 1.00098 4.51984 1.21896 4.09202C1.41071 3.71569 1.71667 3.40973 2.093 3.21799C2.52082 3 3.08087 3 4.20098 3H12.001M12.001 3L10.001 5M12.001 3L10.001 1" stroke="#5F6C7B" stroke-width="2" stroke-linecap="round" stroke-linejoin="round"/>
</svg>
