<svg width="28" height="29" viewBox="0 0 28 29" fill="none" xmlns="http://www.w3.org/2000/svg">
<path d="M24.3333 8.2037L13 14.5M13 14.5L1.66662 8.2037M13 14.5L13 27.1667M25 14.5V9.08863C25 8.63177 25 8.40334 24.9327 8.19961C24.8731 8.01937 24.7758 7.85393 24.6472 7.71434C24.5018 7.55656 24.3021 7.44563 23.9027 7.22376L14.036 1.74227C13.6579 1.5322 13.4688 1.42716 13.2686 1.38598C13.0914 1.34953 12.9086 1.34953 12.7314 1.38598C12.5312 1.42716 12.3421 1.5322 11.964 1.74228L2.09729 7.22376C1.69793 7.44563 1.49825 7.55656 1.35284 7.71435C1.22421 7.85393 1.12686 8.01938 1.06731 8.19961C1 8.40334 1 8.63177 1 9.08863V19.9114C1 20.3683 1 20.5967 1.06731 20.8005C1.12686 20.9807 1.22421 21.1461 1.35284 21.2857C1.49824 21.4435 1.69794 21.5544 2.0973 21.7763L11.964 27.2578C12.3421 27.4679 12.5312 27.5729 12.7314 27.6141C12.9086 27.6505 13.0914 27.6505 13.2686 27.6141C13.4688 27.5729 13.6579 27.4679 14.036 27.2578L14.3333 27.0926M7 4.50003L19 11.1667M26.3333 27.1667L25 25.8334M26.3333 22.5C26.3333 24.7092 24.5425 26.5 22.3333 26.5C20.1242 26.5 18.3333 24.7092 18.3333 22.5C18.3333 20.2909 20.1242 18.5 22.3333 18.5C24.5425 18.5 26.3333 20.2909 26.3333 22.5Z" stroke="#1A1A1A" stroke-width="2" stroke-linecap="round" stroke-linejoin="round"/>
</svg>
