<svg width="22" height="16" viewBox="0 0 22 16" fill="none" xmlns="http://www.w3.org/2000/svg">
<path d="M21.001 6H1.00098M10.001 10H5.00098M1.00098 4.2L1.00098 11.8C1.00098 12.9201 1.00098 13.4802 1.21896 13.908C1.41071 14.2843 1.71667 14.5903 2.093 14.782C2.52082 15 3.08087 15 4.20098 15L17.801 15C18.9211 15 19.4811 15 19.909 14.782C20.2853 14.5903 20.5912 14.2843 20.783 13.908C21.001 13.4802 21.001 12.9201 21.001 11.8V4.2C21.001 3.0799 21.001 2.51984 20.783 2.09202C20.5912 1.7157 20.2853 1.40974 19.909 1.21799C19.4811 1 18.9211 1 17.801 1L4.20098 1C3.08087 1 2.52082 1 2.093 1.21799C1.71667 1.40973 1.41071 1.71569 1.21896 2.09202C1.00098 2.51984 1.00098 3.07989 1.00098 4.2Z" stroke="#5F6C7B" stroke-width="2" stroke-linecap="round" stroke-linejoin="round"/>
</svg>
