<svg width="22" height="19" viewBox="0 0 22 19" fill="none" xmlns="http://www.w3.org/2000/svg">
<path d="M21.001 18L19.501 16.5M21.001 6H1.00098M21.001 8V4.2C21.001 3.0799 21.001 2.51984 20.783 2.09202C20.5912 1.7157 20.2853 1.40974 19.909 1.21799C19.4811 1 18.9211 1 17.801 1H4.20098C3.08087 1 2.52082 1 2.093 1.21799C1.71667 1.40973 1.41071 1.71569 1.21896 2.09202C1.00098 2.51984 1.00098 3.0799 1.00098 4.2V11.8C1.00098 12.9201 1.00098 13.4802 1.21896 13.908C1.41071 14.2843 1.71667 14.5903 2.093 14.782C2.52082 15 3.08087 15 4.20098 15H9.50098M20.501 14C20.501 15.933 18.934 17.5 17.001 17.5C15.068 17.5 13.501 15.933 13.501 14C13.501 12.067 15.068 10.5 17.001 10.5C18.934 10.5 20.501 12.067 20.501 14Z" stroke="#1A1A1A" stroke-width="2" stroke-linecap="round" stroke-linejoin="round"/>
</svg>
