<svg width="25" height="29" viewBox="0 0 25 29" fill="none" xmlns="http://www.w3.org/2000/svg">
<path d="M22.6673 11.1667V7.56675C22.6673 5.32654 22.6673 4.20643 22.2313 3.35079C21.8479 2.59814 21.2359 1.98622 20.4833 1.60272C19.6276 1.16675 18.5075 1.16675 16.2673 1.16675H7.73398C5.49377 1.16675 4.37367 1.16675 3.51802 1.60272C2.76537 1.98622 2.15345 2.59814 1.76996 3.35079C1.33398 4.20643 1.33398 5.32654 1.33398 7.56675V21.4334C1.33398 23.6736 1.33398 24.7937 1.76996 25.6494C2.15345 26.402 2.76537 27.0139 3.51802 27.3974C4.37367 27.8334 5.49377 27.8334 7.73398 27.8334H14.6673M14.6673 13.1667H6.66732M9.33398 18.5001H6.66732M17.334 7.83341H6.66732M18.0007 18.5031C18.2356 17.8352 18.6993 17.2721 19.3096 16.9134C19.92 16.5547 20.6376 16.4236 21.3353 16.5432C22.0331 16.6629 22.666 17.0257 23.1219 17.5673C23.5778 18.1089 23.8274 18.7944 23.8263 19.5023C23.8263 21.5008 20.8285 22.5001 20.8285 22.5001M20.8672 26.5001H20.8805" stroke="#1A1A1A" stroke-width="2" stroke-linecap="round" stroke-linejoin="round"/>
</svg>
