<svg width="25" height="24" viewBox="0 0 25 24" fill="none" xmlns="http://www.w3.org/2000/svg">
<g clip-path="url(#clip0_2544_2515)">
<path d="M24.666 12C24.666 5.37264 19.2934 0 12.666 0C6.03866 0 0.666016 5.37264 0.666016 12C0.666016 17.6275 4.54058 22.3498 9.7673 23.6467V15.6672H7.2929V12H9.7673V10.4198C9.7673 6.33552 11.6158 4.4424 15.6257 4.4424C16.386 4.4424 17.6979 4.59168 18.2345 4.74048V8.06448C17.9513 8.03472 17.4593 8.01984 16.8483 8.01984C14.8807 8.01984 14.1204 8.76528 14.1204 10.703V12H18.0401L17.3667 15.6672H14.1204V23.9122C20.0623 23.1946 24.6665 18.1354 24.6665 12H24.666Z" fill="#532494"/>
<path d="M17.3667 15.6672L18.0402 12H14.1205V10.703C14.1205 8.76526 14.8808 8.01982 16.8483 8.01982C17.4594 8.01982 17.9514 8.0347 18.2346 8.06446V4.74046C17.6979 4.59118 16.3861 4.44238 15.6258 4.44238C11.6158 4.44238 9.76737 6.3355 9.76737 10.4198V12H7.29297V15.6672H9.76737V23.6467C10.6957 23.8771 11.6667 24 12.6661 24C13.1581 24 13.6434 23.9697 14.12 23.9121V15.6672H17.3662H17.3667Z" fill="white"/>
</g>
<defs>
<clipPath id="clip0_2544_2515">
<rect width="24" height="24" fill="white" transform="translate(0.666016)"/>
</clipPath>
</defs>
</svg>
