<svg width="177" height="114" viewBox="0 0 177 114" fill="none" xmlns="http://www.w3.org/2000/svg">
<path d="M90.8753 3.8147e-05C60.2695 3.8147e-05 35.4587 24.8109 35.4587 55.4167C35.4587 86.0225 60.2695 110.833 90.8753 110.833C121.481 110.833 146.292 86.0225 146.292 55.4167C146.292 24.8109 121.481 3.8147e-05 90.8753 3.8147e-05Z" fill="#CDF5FE"/>
<path d="M109.231 41.1672H97.7519C95.7773 41.1588 93.8445 41.7552 92.1969 42.8813C90.5494 44.0073 89.2609 45.6126 88.4937 47.4949C87.7266 49.3771 87.5152 51.4522 87.886 53.4585C88.2569 55.4649 89.1936 57.3128 90.5779 58.7695V63.4322C90.5778 63.7258 90.6619 64.0128 90.8195 64.2569C90.9771 64.501 91.2011 64.6913 91.4633 64.8037C91.7255 64.9161 92.014 64.9454 92.2923 64.8881C92.5707 64.8308 92.8263 64.6894 93.0269 64.4818L95.7169 61.699C96.3841 61.8604 97.0667 61.944 97.7519 61.9483H109.231C110.558 61.9618 111.875 61.703 113.105 61.1869C114.335 60.6708 115.454 59.9076 116.398 58.9414C117.341 57.9752 118.09 56.8252 118.601 55.5579C119.112 54.2905 119.375 52.9309 119.375 51.5578C119.375 50.1846 119.112 48.825 118.601 47.5577C118.09 46.2903 117.341 45.1403 116.398 44.1741C115.454 43.2079 114.335 42.4447 113.105 41.9286C111.875 41.4125 110.558 41.1537 109.231 41.1672ZM97.7519 53.0421C97.4682 53.0421 97.1909 52.9551 96.955 52.792C96.7191 52.629 96.5353 52.3972 96.4267 52.1261C96.3181 51.855 96.2897 51.5566 96.3451 51.2688C96.4004 50.9809 96.537 50.7165 96.7376 50.509C96.9382 50.3015 97.1938 50.1602 97.4721 50.1029C97.7503 50.0457 98.0387 50.075 98.3008 50.1873C98.563 50.2997 98.787 50.4898 98.9446 50.7339C99.1022 50.9779 99.1863 51.2648 99.1863 51.5583C99.1861 51.9517 99.0349 52.329 98.7659 52.6072C98.497 52.8854 98.1323 53.0419 97.7519 53.0421ZM103.492 53.0421C103.208 53.0421 102.93 52.9551 102.695 52.792C102.459 52.629 102.275 52.3972 102.166 52.1261C102.058 51.855 102.029 51.5566 102.085 51.2688C102.14 50.9809 102.277 50.7165 102.477 50.509C102.678 50.3015 102.933 50.1602 103.212 50.1029C103.49 50.0457 103.778 50.075 104.04 50.1873C104.303 50.2997 104.527 50.4898 104.684 50.7339C104.842 50.9779 104.926 51.2648 104.926 51.5583C104.926 51.9517 104.774 52.329 104.506 52.6072C104.237 52.8854 103.872 53.0419 103.492 53.0421ZM109.231 53.0421C108.947 53.0421 108.67 52.9551 108.434 52.792C108.198 52.629 108.014 52.3972 107.906 52.1261C107.797 51.855 107.769 51.5566 107.824 51.2688C107.88 50.9809 108.016 50.7165 108.217 50.509C108.417 50.3015 108.673 50.1602 108.951 50.1029C109.23 50.0457 109.518 50.075 109.78 50.1873C110.042 50.2997 110.266 50.4898 110.424 50.7339C110.581 50.9779 110.666 51.2648 110.666 51.5583C110.665 51.9517 110.514 52.329 110.245 52.6072C109.976 52.8854 109.611 53.0419 109.231 53.0421Z" fill="#2CCFDB"/>
<path d="M74.5522 80.75H94.5318C95.6613 80.7486 96.7441 80.2791 97.5428 79.4444C98.3415 78.6097 98.7907 77.478 98.792 76.2975V65.8053H97.3703C97.0288 65.8053 96.6883 65.7892 96.343 65.7551L94.702 67.4701C94.1062 68.0929 93.3471 68.517 92.5206 68.6888C91.6941 68.8607 90.8375 68.7725 90.059 68.4354C89.2805 68.0984 88.6151 67.5277 88.147 66.7954C87.6788 66.0631 87.429 65.2022 87.4291 64.3215V60.7829C85.593 58.4285 84.5898 55.4844 84.5886 52.447C84.5914 48.905 85.939 45.5088 88.3353 43.0041C90.7317 40.4995 93.9812 39.0909 97.3703 39.0877H98.7901V34.5357C98.7888 33.3556 98.3398 32.2242 97.5415 31.3896C96.7433 30.5549 95.6609 30.0852 94.5318 30.0833H74.5522C73.4227 30.0846 72.3399 30.5542 71.5412 31.3889C70.7425 32.2236 70.2933 33.3553 70.292 34.5357V76.2935C70.2922 77.4747 70.7411 78.6074 71.5398 79.443C72.3386 80.2786 73.4221 80.7486 74.5522 80.75ZM84.5886 36.1151C84.8694 36.1151 85.1439 36.2021 85.3774 36.3651C85.6109 36.5282 85.7929 36.7599 85.9003 37.031C86.0078 37.3022 86.0359 37.6005 85.9811 37.8883C85.9263 38.1762 85.7911 38.4406 85.5926 38.6481C85.394 38.8556 85.141 38.9969 84.8656 39.0542C84.5902 39.1114 84.3048 39.082 84.0453 38.9697C83.7859 38.8574 83.5642 38.6672 83.4082 38.4232C83.2522 38.1792 83.1689 37.8923 83.1689 37.5989C83.1689 37.2053 83.3185 36.8279 83.5847 36.5497C83.851 36.2714 84.2121 36.1151 84.5886 36.1151ZM83.1689 71.7426H86.0094C86.386 71.7426 86.7473 71.899 87.0136 72.1773C87.28 72.4557 87.4296 72.8332 87.4296 73.2269C87.4296 73.6205 87.28 73.9981 87.0136 74.2765C86.7473 74.5548 86.386 74.7112 86.0094 74.7112H83.1689C82.7922 74.7112 82.431 74.5548 82.1646 74.2765C81.8983 73.9981 81.7486 73.6205 81.7486 73.2269C81.7486 72.8332 81.8983 72.4557 82.1646 72.1773C82.431 71.899 82.7922 71.7426 83.1689 71.7426Z" fill="#2CCFDB"/>
<path opacity="0.485" d="M162.125 16.625C162.125 18.0342 162.543 19.4118 163.326 20.5835C164.109 21.7553 165.222 22.6685 166.524 23.2077C167.826 23.747 169.258 23.888 170.64 23.613C172.023 23.338 173.292 22.6593 174.288 21.6628C175.285 20.6662 175.963 19.3966 176.238 18.0144C176.513 16.6322 176.372 15.1996 175.832 13.8977C175.293 12.5958 174.38 11.4831 173.208 10.7003C172.036 9.91751 170.658 9.49981 169.249 9.5C167.365 9.51762 165.563 10.274 164.231 11.6064C162.898 12.9388 162.142 14.7409 162.125 16.625Z" fill="#E3D6F5"/>
<path opacity="0.735" d="M0.625 89.4583C0.625 90.5543 0.950006 91.6257 1.55893 92.5371C2.16786 93.4484 3.03335 94.1587 4.04596 94.5781C5.05857 94.9976 6.17281 95.1073 7.24778 94.8935C8.32276 94.6797 9.31021 94.1519 10.0852 93.3768C10.8602 92.6018 11.388 91.6144 11.6018 90.5394C11.8157 89.4644 11.7059 88.3502 11.2865 87.3376C10.8671 86.325 10.1568 85.4595 9.24545 84.8506C8.33413 84.2416 7.26271 83.9166 6.16667 83.9166C4.7014 83.9311 3.30023 84.5196 2.26408 85.5557C1.22792 86.5919 0.639437 87.993 0.625 89.4583Z" fill="#E3D6F5"/>
<path opacity="0.471" d="M157.375 110.041C157.375 110.824 157.607 111.589 158.042 112.24C158.476 112.891 159.095 113.399 159.818 113.698C160.541 113.998 161.337 114.077 162.105 113.924C162.873 113.772 163.578 113.395 164.132 112.841C164.686 112.288 165.063 111.582 165.216 110.814C165.368 110.046 165.29 109.251 164.99 108.527C164.691 107.804 164.184 107.186 163.533 106.751C162.882 106.316 162.116 106.083 161.333 106.083C160.287 106.093 159.285 106.513 158.545 107.253C157.805 107.993 157.385 108.994 157.375 110.041Z" fill="#CDF5FE"/>
</svg>
