<svg width="12" height="16" viewBox="0 0 12 16" fill="none" xmlns="http://www.w3.org/2000/svg">
    <path
        d="M7.33317 7.33301H3.33317M4.6665 9.99967H3.33317M8.6665 4.66634H3.33317M11.3332 4.53301V11.4663C11.3332 12.5864 11.3332 13.1465 11.1152 13.5743C10.9234 13.9506 10.6175 14.2566 10.2412 14.4484C9.81333 14.6663 9.25328 14.6663 8.13317 14.6663H3.8665C2.7464 14.6663 2.18635 14.6663 1.75852 14.4484C1.3822 14.2566 1.07624 13.9506 0.884491 13.5743C0.666504 13.1465 0.666504 12.5864 0.666504 11.4663V4.53301C0.666504 3.4129 0.666504 2.85285 0.884491 2.42503C1.07624 2.0487 1.3822 1.74274 1.75852 1.55099C2.18635 1.33301 2.7464 1.33301 3.8665 1.33301H8.13317C9.25328 1.33301 9.81333 1.33301 10.2412 1.55099C10.6175 1.74274 10.9234 2.0487 11.1152 2.42503C11.3332 2.85285 11.3332 3.4129 11.3332 4.53301Z"
        stroke="currentColor" stroke-linecap="round" stroke-linejoin="round" />
</svg>