<svg width="24" height="17" viewBox="0 0 24 17" fill="none" xmlns="http://www.w3.org/2000/svg">
<path d="M23.9812 14.3839C23.9812 15.7 22.9648 16.7452 21.7224 16.7452H2.89939C1.65707 16.7452 0.640625 15.7 0.640625 14.3839V2.61617C0.640625 1.30004 1.65707 0.254883 2.89939 0.254883H21.7224C22.9648 0.254883 23.9812 1.30004 23.9812 2.61617V14.3839Z" fill="#009966"/>
<path d="M2.89844 0.254883H21.7215C22.9638 0.254883 23.9802 1.30004 23.9802 2.61617V14.3839C23.9802 15.7 22.9638 16.7452 21.7215 16.7452" fill="#038E5C"/>
<path d="M23.9812 14.3839C23.9812 15.7 22.9648 16.7452 21.7224 16.7452H2.89939C1.65707 16.7452 0.640625 15.7 0.640625 14.3839M2.89939 0.254883H21.7224C22.9648 0.254883 23.9812 1.30004 23.9812 2.61617V6.91295" fill="#007A54"/>
<path d="M3.50234 4.00977C3.65312 3.89364 3.65312 4.20332 3.50234 4.5517C3.57773 4.43557 3.72851 4.16461 3.69081 3.97106C3.65312 3.70009 3.50234 3.7388 3.38926 3.89364C3.31387 4.00977 3.35156 4.08719 3.50234 4.00977Z" fill="white"/>
<path d="M3.53977 6.21611C3.728 5.86773 3.65271 5.59676 3.8033 5.09353C3.91624 4.78386 3.91624 5.01611 3.91624 5.20966C3.84094 5.71289 3.87859 6.52579 4.55622 6.48708C4.59386 6.9516 4.7068 7.7645 4.7068 8.07418C4.7068 8.34515 4.74445 8.26773 4.81974 8.11289C4.89503 7.95805 4.85739 7.7645 4.85739 7.53224C4.85739 7.29998 4.81974 6.87418 4.7821 6.29353C4.85739 6.21611 4.97033 6.09998 5.00797 6.02257C5.08326 5.82902 5.12091 5.86773 5.15856 6.02257C5.23385 6.33224 5.53502 6.52579 5.91148 6.21611C6.28794 5.94515 6.13735 5.40321 5.94912 4.82257C6.09971 4.86128 6.13735 4.74515 6.06206 4.59031C6.02442 4.51289 5.94912 4.43547 5.91148 4.35805C5.83619 4.28063 5.79854 4.20321 5.72325 4.28063C5.64796 4.35805 5.61031 4.43547 5.57266 4.47418C5.53502 4.51289 5.53502 4.59031 5.57266 4.70644C5.72325 5.05482 5.79854 5.44192 5.83619 5.63547C5.87383 5.82902 5.79854 5.86773 5.64796 5.86773C5.53502 5.86773 5.34679 5.82902 5.27149 5.51934C5.1962 5.20966 5.15856 5.09353 5.1962 4.86128C5.1962 4.66773 5.23385 4.51289 5.08326 4.31934C4.93268 4.12579 4.93268 4.1645 4.89503 4.24192C4.85739 4.35805 4.81974 4.51289 4.85739 4.70644C4.93268 4.9774 4.97033 5.20966 5.00797 5.3645C5.04562 5.48063 4.93268 5.71289 4.74445 5.82902C4.7068 5.44192 4.66916 4.9774 4.63151 4.5516C4.85739 4.47418 4.74445 4.20321 4.55622 3.89353C4.44328 3.66128 4.36799 3.73869 4.2927 3.89353C4.2174 4.04837 4.25505 4.12579 4.33034 4.24192C4.2927 4.35805 4.36799 4.51289 4.40563 4.78386C4.44328 4.9774 4.48093 5.48063 4.48093 5.90644C4.33034 5.90644 4.2174 5.79031 4.14211 5.63547C4.02917 5.32579 4.02917 5.01611 4.10447 4.86128C4.17976 4.66773 4.2174 4.39676 4.10447 4.31934C3.99153 4.24192 3.87859 4.31934 3.8033 4.47418C3.65271 4.70644 3.50213 5.01611 3.50213 5.3645C3.50213 5.48063 3.46448 5.7516 3.38919 5.86773C3.35154 5.98386 3.23861 5.98386 3.16331 5.82902C3.01273 5.59676 2.97508 4.9774 2.97508 4.66773C2.97508 4.51289 2.93744 4.47418 2.89979 4.66773C2.74921 5.28708 2.93744 5.90644 3.05038 6.1774C3.23861 6.52579 3.42684 6.44837 3.53977 6.21611Z" fill="white"/>
<path d="M5.34697 4.20329C5.42226 4.12587 5.42226 4.12587 5.45991 4.20329C5.49755 4.28071 5.61049 4.28071 5.64814 4.20329C5.68578 4.12587 5.72343 4.08716 5.68578 3.97103C5.64814 3.89361 5.64814 3.93232 5.61049 4.00974C5.57285 4.16458 5.42226 4.12587 5.42226 3.93232C5.42226 3.73877 5.38461 3.8549 5.30932 3.97103C5.23403 4.16458 5.12109 4.12587 5.12109 3.93232C5.12109 3.81619 5.08345 3.70006 5.00815 3.8549C4.97051 3.97103 5.00815 4.08716 5.0458 4.16458C5.15874 4.28071 5.27168 4.28071 5.34697 4.20329ZM4.21759 7.10651C4.33052 7.06781 4.33052 7.06781 4.33052 6.91297C4.33052 6.75813 4.25523 6.83555 4.10465 6.87426C3.87877 6.95168 3.42702 7.18393 3.0882 7.60974C2.93762 7.80329 3.05056 7.72587 3.1635 7.64845C3.35173 7.49361 3.91642 7.18393 4.21759 7.10651ZM3.46466 9.58393C3.35173 9.77748 3.12585 9.50651 3.27643 9.00329C3.31408 8.88716 3.35173 8.80974 3.35173 8.73232V8.46135C3.35173 8.38393 3.27643 8.50006 3.23879 8.6549C3.20114 8.88716 3.05056 9.00329 3.0882 9.73877C3.12585 10.1646 3.61525 10.1646 3.6529 9.62264C3.6529 9.39039 3.5776 9.39039 3.46466 9.58393ZM6.81517 7.95813C6.81517 7.76458 6.77752 7.57103 6.77752 7.37748C6.81517 7.37748 6.81517 7.33877 6.85281 7.33877C6.96575 7.68716 7.45515 7.60974 7.60573 7.37748C7.68103 7.26135 7.68103 7.26135 7.75632 7.37748C7.86926 7.53232 8.24572 7.60974 8.32101 7.37748C8.3963 7.14523 8.3963 6.91297 8.35866 6.75813C8.32101 6.56458 8.28336 6.60329 8.17042 6.68071C8.05749 6.75813 8.13278 6.79684 8.17042 6.91297C8.20807 7.37748 7.83161 7.33877 7.79396 6.87426C7.75632 6.56458 7.71867 6.68071 7.68103 6.83555C7.4928 7.41619 7.0034 7.53232 7.07869 6.83555C7.07869 6.642 6.96575 6.71942 6.89046 6.79684L6.73987 6.95168C6.70223 6.40974 6.66458 5.79039 6.58929 5.01619C6.73987 5.20974 6.89046 4.97748 6.77752 4.78393C6.70223 4.6291 6.58929 4.242 6.514 4.04845C6.43871 3.8549 6.40106 3.89361 6.25047 4.08716C6.09989 4.242 6.13754 4.28071 6.17518 4.47426C6.17518 4.70652 6.17518 4.90006 6.25047 5.32587C6.28812 5.63555 6.36341 6.29361 6.4387 7.10651C6.36341 7.14522 6.25047 7.22264 6.17518 7.26135C6.13754 7.10651 6.0246 7.0291 5.87401 6.87426C5.64814 6.642 5.49755 6.642 5.30932 6.91297C5.12109 7.18393 5.15874 7.22264 5.15874 7.49361C5.15874 7.72587 5.12109 7.80329 5.30932 7.88071C5.49755 7.95813 5.57285 7.91942 5.68578 7.88071C5.76108 7.842 5.87401 7.80329 6.0246 7.76458C6.06224 7.88071 6.0246 8.03555 5.94931 8.11297C5.49755 8.6549 4.81992 9.08071 4.51875 8.69361C4.36817 8.50006 4.29288 8.19039 4.33052 7.80329C4.36817 7.49361 4.29288 7.64845 4.25523 7.72587C4.14229 8.07426 4.10465 8.61619 4.25523 8.88716C4.44346 9.27426 4.78228 9.4291 5.30932 9.15813C5.83637 8.92587 6.32577 8.50006 6.32577 7.91942V7.64845C6.40106 7.60974 6.47635 7.57103 6.514 7.53232V8.19039C6.55164 8.80974 6.28812 9.00329 6.06224 9.19684C5.76108 9.4291 5.34697 9.62264 4.97051 9.66135C4.14229 9.77748 3.95406 9.23555 3.95406 8.50006C3.95406 8.38393 3.99171 8.30652 3.99171 8.15168C3.99171 7.842 3.95406 7.88071 3.84113 8.19039C3.76583 8.50006 3.65289 9.19684 3.91642 9.77748C4.21759 10.3581 5.19638 10.2033 5.94931 9.81619C6.77752 9.39039 6.85281 8.69361 6.81517 7.95813ZM5.76108 7.37748C5.57285 7.4549 5.49755 7.33877 5.5352 7.22264C5.5352 7.10652 5.57285 7.0291 5.72343 7.10651C5.79872 7.14522 5.87401 7.22264 5.94931 7.33877C5.83637 7.37748 5.79872 7.37748 5.76108 7.37748Z" fill="white"/>
<path d="M7.68078 8.61622C7.75607 8.46138 7.79371 8.30654 7.75607 8.11299C7.71842 7.99686 7.75607 7.95815 7.64313 7.88073C7.53019 7.84202 7.49255 7.91944 7.4549 7.99686C7.41725 8.11299 7.49255 8.26783 7.64313 8.19041C7.68078 8.26783 7.64313 8.46138 7.60548 8.57751C7.56784 8.73235 7.60548 8.77106 7.68078 8.61622ZM7.98194 5.48073C7.83136 5.67428 7.71842 5.94525 7.9443 6.10009C8.05724 6.17751 8.28311 6.06138 8.3584 5.90654C8.4337 5.71299 8.39605 5.67428 8.24547 5.86783C8.05724 6.10009 7.83136 5.90654 8.05724 5.55815C8.20782 5.32589 8.09488 5.28718 7.98194 5.48073ZM7.34196 5.51944C7.86901 5.28718 8.17017 4.97751 8.32076 4.70654C8.47134 4.74525 8.50899 4.62912 8.4337 4.51299C8.47134 4.39686 8.50899 4.31944 8.54664 4.24202C8.65957 3.7388 8.17017 3.70009 8.05724 4.08718C7.98194 4.28073 7.98194 4.47428 8.13253 4.59041C7.90665 4.90009 7.60548 5.17106 7.22902 5.40331C7.07844 5.55815 7.11608 5.63557 7.34196 5.51944ZM8.24547 4.1646C8.28311 4.04847 8.3584 4.12589 8.3584 4.20331C8.3584 4.24202 8.32076 4.31944 8.28311 4.35815C8.20782 4.31944 8.20782 4.24202 8.24547 4.1646Z" fill="white"/>
<path d="M8.05733 4.08718C7.98194 4.28073 7.98194 4.47428 8.13272 4.59041C8.09503 4.62912 8.05733 4.70654 8.01964 4.74525L8.20811 4.90009C8.2458 4.82267 8.32119 4.78396 8.35889 4.70654C8.50966 4.74525 8.54736 4.62912 8.47197 4.51299C8.50966 4.39686 8.54736 4.31944 8.58505 4.24202C8.66044 3.7388 8.20811 3.70009 8.05733 4.08718ZM8.35889 4.20331C8.35889 4.24202 8.32119 4.31944 8.2835 4.35815C8.20811 4.31944 8.20811 4.24202 8.2458 4.1646C8.2835 4.04847 8.35889 4.12589 8.35889 4.20331Z" fill="#CFE7E8"/>
<path d="M8.62084 8.61612C8.54555 8.65483 8.43261 8.77096 8.35732 8.84838C8.35732 8.69354 8.39497 8.46128 8.39497 8.38386C8.39497 8.26773 8.35732 8.22902 8.28203 8.34515C8.16909 8.57741 8.05615 8.88709 8.01851 9.11935C7.52911 9.46773 6.92677 9.81612 6.51266 10.0097C6.32443 10.0871 6.43737 10.1645 6.58796 10.1258C7.15265 9.93225 7.6044 9.77741 8.01851 9.58386C8.05615 9.93225 8.16909 10.1645 8.47026 10.2419C9.03495 10.3968 9.59964 9.89354 10.2396 9.00322C10.3902 9.42902 10.7667 10.0097 11.7455 10.1645C12.1596 10.2419 12.1219 10.2032 12.1972 9.97096C12.2349 9.77741 12.3102 9.7387 11.9713 9.66128C11.5572 9.50644 11.4067 9.19677 11.8208 9.00322C12.2349 8.80967 12.7996 8.65483 13.176 8.57741C13.4395 8.5387 13.5148 8.5387 13.5901 8.30644C13.6654 8.03548 13.7031 7.99677 13.4395 8.03548C13.1384 8.07418 11.7078 8.11289 11.3314 8.07419C11.6325 7.91935 12.0466 7.76451 12.3478 7.64838C12.4607 7.7258 12.4984 7.68709 12.4607 7.60967C12.5737 7.57096 12.6866 7.53225 12.7996 7.45483C13.1384 7.26128 13.289 6.83548 12.9125 6.56451C12.536 6.29354 12.2349 6.21612 12.0466 6.48709C11.8961 6.71935 11.7455 6.9516 11.9713 7.26128C11.6325 7.37741 11.3314 7.49354 11.0302 7.60967C10.8043 7.68709 10.6914 7.7258 10.6161 8.03548C10.5408 8.34515 10.5031 8.34515 10.8043 8.38386C11.2184 8.38386 11.5949 8.38386 11.8584 8.61612C11.4443 8.77096 11.1431 9.08064 11.2937 9.50644C11.1055 9.46773 10.9173 9.39031 10.7667 9.23548C10.4655 8.9258 10.4655 8.38386 10.3526 7.76451C10.2396 7.14515 9.9761 6.60322 9.86316 6.37096C9.78787 6.1387 9.75023 6.25483 9.67493 6.40967C9.59964 6.56451 9.52435 6.64193 9.59964 6.87418C9.75023 7.26128 9.9761 8.03548 10.089 8.49999C9.86317 9.04193 9.26083 9.69999 8.77143 9.77741C8.39497 9.85483 8.28203 9.62257 8.31968 9.42902C8.5832 9.27419 8.80907 9.08064 9.03495 8.84838C9.4867 8.34515 9.562 7.95806 9.26083 7.14515C9.44906 7.18386 9.41141 7.02902 9.14789 6.68064C8.95966 6.44838 8.92201 6.48709 8.80908 6.71935C8.73378 6.91289 8.65849 7.06773 8.88437 7.14515C8.92201 7.26128 8.99731 7.41612 9.11024 7.60967C9.33612 8.1129 8.95966 8.30644 8.62084 8.61612ZM12.1972 6.91289C12.1972 6.79677 12.2349 6.79677 12.4231 6.91289C12.6113 7.02902 12.7619 7.06773 12.4984 7.10644C12.4231 7.14515 12.3102 7.14515 12.2349 7.18386C12.2349 7.06773 12.2349 6.99031 12.1972 6.91289Z" fill="white"/>
<path d="M13.4022 8.03554C13.214 8.03554 12.3858 8.07425 11.8211 8.07425L12.574 8.73232C12.7622 8.6549 12.9881 8.61619 13.1387 8.57748C13.4022 8.53877 13.4775 8.53877 13.5528 8.30651C13.6281 8.03554 13.6657 7.99683 13.4022 8.03554ZM9.71289 6.21619L9.78818 6.29361C9.78818 6.21619 9.75054 6.21619 9.71289 6.21619ZM11.6328 7.8807C11.8587 7.76457 12.1222 7.68715 12.3105 7.60974C12.4234 7.68715 12.4611 7.64844 12.4234 7.57103C12.5363 7.53232 12.6493 7.49361 12.7622 7.41619C13.101 7.22264 13.2516 6.79683 12.8752 6.52586C12.4987 6.2549 12.1975 6.17748 12.0093 6.44844C11.8587 6.6807 11.7081 6.91296 11.934 7.22264C11.6705 7.30006 11.4446 7.37748 11.2187 7.49361L11.6328 7.8807ZM12.4611 6.91296C12.6493 7.02909 12.7999 7.0678 12.5363 7.10651C12.4611 7.14522 12.3481 7.14522 12.2728 7.18393C12.2352 7.0678 12.2352 6.99038 12.2352 6.95167C12.1975 6.79683 12.2728 6.79683 12.4611 6.91296Z" fill="#CFE7E8"/>
<path d="M13.0638 10.0485C13.1767 10.0098 13.365 9.89363 13.5155 9.7775C13.6661 9.62266 13.5532 9.66137 13.4402 9.70008C13.3273 9.73879 13.2144 9.81621 13.0638 9.85492C12.9132 9.93234 12.8756 9.85492 12.9508 9.58395C13.0261 9.3517 12.9508 9.3517 12.8379 9.39041C12.725 9.42912 12.6873 9.50654 12.5744 9.58395C12.4991 9.62266 12.4991 9.70008 12.6873 9.62267C12.8379 9.54525 12.8003 9.62267 12.7626 9.81621C12.6873 10.0098 12.8003 10.1259 13.0638 10.0485Z" fill="white"/>
<path d="M9.56238 5.82908C9.67532 5.55811 9.75061 5.28714 9.8259 5.09359C9.90119 4.90005 9.97648 4.93875 9.93884 5.1323C9.90119 5.48069 9.90119 6.02263 10.24 6.25488C10.5788 6.44843 11.1059 6.10005 11.2941 5.71295C11.8588 6.44843 12.3482 6.10005 12.3858 5.40327C12.3858 5.17101 12.3105 4.7065 12.2352 4.55166C12.16 4.39682 12.2352 4.39682 12.3105 4.47424C12.3858 4.55166 12.5364 4.62908 12.4611 4.35811C12.3858 4.12585 12.2729 3.97101 12.16 3.85488C12.047 3.73876 12.0094 3.81617 11.9717 3.89359C11.9341 3.97101 11.9341 4.00972 11.8588 4.08714C11.7835 4.16456 11.8211 4.20327 11.8588 4.3194C12.0847 4.86134 12.2729 5.67424 11.9341 5.75166C11.6329 5.82908 11.4447 5.1323 11.4447 4.82263C11.4447 4.43553 11.3694 4.08714 11.2941 3.85488C11.2188 3.62263 11.1812 3.62263 11.1059 3.73876C11.0682 3.81617 11.0682 3.89359 10.9929 3.97101C10.9553 4.04843 10.9929 4.08714 11.0306 4.24198C11.2188 5.1323 11.1812 5.5194 10.8047 5.75166C10.4282 5.98392 10.2024 5.75166 10.2024 5.48069C10.2024 5.20972 10.2024 4.86134 10.24 4.62908C10.2777 4.39682 10.3153 4.3194 10.24 4.20327C10.1647 4.08714 10.0894 4.12585 9.97648 4.28069C9.75061 4.62908 9.48708 5.20972 9.41179 5.48069C9.3365 5.75166 9.14827 5.67424 9.03533 5.44198C8.88475 5.17101 8.92239 4.66779 8.96004 4.43553C8.99769 4.24198 8.99769 4.16456 8.88475 4.35811C8.69652 4.90005 8.69652 5.44198 9.11062 5.9065C9.29885 6.25488 9.44944 6.10005 9.56238 5.82908Z" fill="#CFE7E8"/>
<path d="M10.6172 4.78395C10.6172 4.90008 10.6172 5.05492 10.6925 4.82266C10.7301 4.5904 10.7301 4.28072 10.6549 4.08717C10.5796 3.89363 10.5419 3.85492 10.4666 3.93234C10.3913 4.00976 10.3913 4.04846 10.4666 4.12588C10.5419 4.24201 10.6549 4.51298 10.6172 4.78395ZM11.4078 6.6033C11.4078 6.91298 11.3325 6.91298 11.2195 6.6033C11.1819 6.48717 11.1443 6.48717 11.1066 6.64201C11.1066 6.91298 10.9937 6.95169 10.9184 6.68072C10.8807 6.56459 10.8807 6.44846 10.8431 6.64201C10.8054 6.79685 10.8431 6.91298 10.9184 7.02911C10.9937 7.10653 11.1066 7.10653 11.1443 6.9904C11.1819 6.87427 11.2195 6.87427 11.2948 6.95169C11.3701 7.02911 11.6713 6.95169 11.5207 6.52588C11.4454 6.37105 11.4078 6.40975 11.4078 6.6033ZM14.4571 4.16459C14.57 4.24201 14.683 4.43556 14.6453 4.66782C14.6077 4.86137 14.6453 4.9775 14.7583 4.70653C14.8712 4.43556 14.7959 4.12588 14.683 3.93234C14.57 3.73879 14.5324 3.81621 14.4571 3.89363C14.3818 4.00976 14.3442 4.12588 14.4571 4.16459ZM12.5372 4.28072C12.5372 4.39685 12.5748 4.47427 12.7254 4.51298C13.0266 4.93879 13.3654 5.4033 13.6665 5.82911C13.7042 6.21621 13.7795 6.6033 13.8171 6.95169C13.8924 7.72588 14.043 8.77105 13.9301 9.23556C13.8548 9.58395 13.9301 9.70008 14.0806 9.19685C14.2312 8.69363 14.2312 8.1904 14.1183 7.45492C14.0806 7.14524 14.0806 6.79685 14.043 6.40975C14.5324 7.22266 15.0218 7.99685 15.21 8.53879C15.323 8.84846 15.4359 8.88717 15.323 8.50008C15.21 7.95814 14.7206 7.02911 13.9677 5.86782C13.9301 5.55814 13.9301 5.24846 13.9301 5.01621C14.043 5.13234 14.1183 5.05492 14.0806 4.90008C14.0054 4.5904 13.8924 4.35814 13.7795 4.04846C13.7418 3.89363 13.5912 3.89363 13.516 4.08717C13.4407 4.31943 13.4407 4.35814 13.516 4.51298C13.516 4.70653 13.5536 4.9775 13.5913 5.24846C13.4783 5.05492 13.2901 4.78395 13.1395 4.5904C13.3277 4.66782 13.4783 4.62911 13.2901 4.39685C13.1019 4.2033 12.8383 3.97105 12.6877 3.81621C12.5372 3.66137 12.4619 3.7775 12.4619 3.89363C12.5372 4.08717 12.5748 4.16459 12.5372 4.28072ZM14.683 5.36459C14.6453 5.55814 14.57 5.48072 14.5324 5.32588C14.4948 5.24846 14.4571 5.28717 14.4571 5.44201C14.4948 5.59685 14.5324 5.71298 14.6453 5.59685C14.7206 5.51943 14.7206 5.51943 14.8336 5.59685C14.9089 5.67427 14.9842 5.59685 15.0218 5.55814C15.0218 5.51943 15.0594 5.44201 15.0218 5.24846C14.9842 5.05492 14.9465 5.17104 14.9089 5.32588C14.8712 5.48072 14.7959 5.51943 14.7583 5.32588C14.7583 5.17104 14.683 5.20975 14.683 5.36459Z" fill="#CFE7E8"/>
<path d="M15.5477 7.88064C15.5853 8.57741 15.6606 8.88709 15.2465 9.39032C14.7948 9.89354 14.4936 10.0484 14.3054 10.0871C14.0418 10.1645 13.9665 10.2806 14.343 10.2419C14.9077 10.2032 14.983 10.2032 15.4724 9.62258C15.7359 9.3129 15.8489 8.9258 15.8489 7.99677C15.8112 6.37096 15.623 5.67419 15.623 4.78386C15.6983 4.86128 15.8112 4.86128 15.7736 4.70645C15.6983 4.5129 15.6606 4.28064 15.623 4.08709C15.5477 3.89354 15.51 3.81612 15.4347 3.93225C15.3595 4.04838 15.2842 4.08709 15.2465 4.16451C15.2089 4.24193 15.1712 4.35806 15.2465 4.47419C15.4724 6.37096 15.51 7.18387 15.5477 7.88064ZM16.5265 8.07419C16.5641 8.46128 16.6394 8.73225 16.5265 9.19677C16.4888 9.3129 16.5641 9.39032 16.6394 9.19677C16.9782 8.5387 16.7524 7.95806 16.7147 7.57096C16.6771 6.99032 16.4512 5.48064 16.4135 4.86128L16.4512 4.89999C16.6018 4.97741 16.79 5.05483 16.6771 4.82257C16.5641 4.62903 16.4512 4.28064 16.3759 4.04838C16.3006 3.81612 16.263 3.81612 16.15 4.00967C15.9241 4.31935 16.0747 4.62903 16.15 5.01612C16.3006 6.33225 16.4888 7.68709 16.5265 8.07419ZM17.317 5.90645C17.43 6.02257 17.5053 6.25483 17.5806 6.37096C17.6559 6.56451 17.7312 6.40967 17.7312 6.29354C17.7312 6.17741 17.6935 5.82903 17.7312 5.7129C17.8064 5.51935 17.9194 5.79032 17.957 5.67419C17.9947 5.59677 17.9194 5.55806 17.8817 5.48064C17.8441 5.36451 17.8064 5.40322 17.7312 5.44193C17.6559 5.51935 17.6182 5.59677 17.6182 5.63548V6.06128C17.6182 6.21612 17.5806 6.21612 17.5429 6.1387C17.5053 6.02257 17.3923 5.75161 17.317 5.67419C17.2418 5.59677 17.1288 5.63548 17.1288 5.75161V5.94516C17.1288 6.02257 17.2794 6.02257 17.317 5.90645ZM17.2418 7.41612C17.2418 7.53225 17.3923 7.37741 17.5053 7.29999C17.6182 7.22257 17.957 6.99032 18.1076 6.9129C18.2582 6.83548 18.2206 6.79677 18.1829 6.64193C18.1829 6.48709 18.07 6.60322 17.957 6.71935C17.8441 6.83548 17.5053 7.06774 17.3923 7.18387C17.2794 7.29999 17.2418 7.3387 17.2418 7.41612Z" fill="#CFE7E8"/>
<path d="M16.4514 9.50647C16.3008 9.19679 16.3008 8.88712 16.3008 8.61615C16.3008 8.38389 16.2632 8.19034 16.1879 8.57744C15.962 9.50647 16.1126 9.70002 16.3385 9.89357C16.6397 10.1645 16.7526 10.2032 16.9032 9.93228C17.2044 9.46776 17.3173 9.08066 17.4679 8.84841C17.6185 8.65486 17.6185 8.8097 17.6938 8.88712C17.882 9.11937 18.0326 9.19679 18.2961 9.2355C18.5596 9.27421 19.0114 9.04196 18.9737 8.19034C18.9361 7.64841 18.8984 6.95163 18.8608 6.17744C19.1243 6.52583 19.3125 6.8355 19.5008 7.10647C19.5761 7.6097 19.6137 8.07421 19.6137 8.4226C19.5761 8.84841 19.689 8.84841 19.7643 8.4226C19.8019 8.26776 19.8019 7.88066 19.7643 7.45486C20.1031 7.91937 20.2913 8.19034 20.4043 8.4226C20.5549 8.69357 20.6301 8.88712 20.5925 8.38389C20.5925 8.19034 20.5172 8.0355 20.2913 7.68712C20.0655 7.37744 19.8772 7.06776 19.689 6.75808C19.6137 6.0226 19.5384 5.2097 19.5384 4.78389C19.6513 4.86131 19.7266 4.78389 19.6513 4.62905C19.6137 4.47421 19.5008 4.0097 19.4255 3.85486C19.3502 3.70002 19.2749 3.70002 19.1996 3.89357C19.1243 4.04841 19.049 4.12583 19.0867 4.24196C19.1243 4.97744 19.1996 5.67421 19.3125 6.29357C19.1243 6.0226 18.9361 5.75163 18.7855 5.51937C18.7855 5.24841 18.7478 4.97744 18.7478 4.70647C18.8608 4.78389 18.8984 4.78389 18.8608 4.59034C18.8231 4.4355 18.6725 4.04841 18.5973 3.89357C18.522 3.73873 18.4843 3.73873 18.409 3.85486C18.2961 4.04841 18.2584 4.20325 18.3714 4.39679C18.3714 4.59034 18.409 4.74518 18.409 4.93873C18.2961 4.78389 18.2208 4.62905 18.1079 4.51292C18.2208 4.55163 18.2961 4.47421 18.1831 4.35808C18.0702 4.24195 17.8443 4.04841 17.7314 3.93228C17.6185 3.77744 17.5432 3.81615 17.5432 3.93228V4.28066C17.5432 4.39679 17.5432 4.47421 17.6561 4.66776C17.9196 5.01615 18.2208 5.36454 18.4467 5.71292C18.5596 6.95163 18.5973 7.76454 18.5973 8.26776C18.5973 8.57744 18.4843 8.73228 18.3337 8.77099C18.1831 8.8097 18.0326 8.73228 17.882 8.50002C17.6185 8.11292 17.5055 8.19034 17.3173 8.53873C17.1291 8.88712 16.9785 9.15808 16.8655 9.39034C16.7902 9.6226 16.602 9.81615 16.4514 9.50647ZM20.0655 5.2097C20.0655 5.44196 20.1407 5.40325 20.1784 5.2097C20.216 5.01615 20.216 4.62905 20.1031 4.39679C19.9902 4.12583 19.9525 4.24196 19.9149 4.31937C19.8396 4.4355 19.8396 4.47421 19.9525 4.59034C19.9902 4.70647 20.0655 4.97744 20.0655 5.2097Z" fill="#CFE7E8"/>
<path d="M21.0834 7.60975C21.0081 5.98394 20.8199 5.28717 20.8575 4.66781C21.0081 4.78394 21.0457 4.74523 20.9704 4.55168C20.8951 4.35813 20.7822 4.12588 20.7069 3.89362C20.6316 3.70007 20.594 3.73878 20.481 3.89362C20.3681 4.04846 20.3681 4.16459 20.4058 4.24201C20.6316 6.2162 20.7446 7.26136 20.7822 7.88072C20.8199 8.73233 20.6316 9.23555 19.8034 9.8162C19.5399 10.0097 19.2387 10.2033 19.8787 10.0485C20.481 9.85491 21.1587 9.4291 21.0834 7.60975ZM18.9752 9.31297C18.8623 9.46781 19.1258 9.54523 19.1634 9.4291C19.2387 9.54523 19.1634 9.73878 19.0505 9.85491C18.8623 10.0097 18.9752 10.0485 19.0881 9.93233C19.2011 9.85491 19.5022 9.50652 19.314 9.27426C19.2011 9.19684 19.0505 9.19684 18.9752 9.31297Z" fill="#CFE7E8"/>
<path d="M18.1456 12.1775C17.6562 12.1775 17.2044 12.1775 16.715 12.2162V12.0613C16.8656 11.8678 16.828 11.8678 16.715 11.6742C16.6774 11.5968 16.6397 11.5194 16.5268 11.6742C16.4138 11.8291 16.4138 11.8678 16.5644 12.0613V12.2162C12.8375 12.2549 8.73404 12.2162 5.19531 12.1775C5.57177 12.8355 6.85174 12.7968 8.01877 12.7968C9.07286 12.7968 12.2351 12.7968 16.5268 12.6807V12.8742C16.3762 13.0678 16.4138 13.0678 16.5268 13.2613C16.6397 13.4162 16.6774 13.3388 16.715 13.2613C16.7527 13.2226 16.7527 13.1839 16.7527 13.1839H17.3173C17.3173 13.2613 17.4303 13.3 17.4679 13.3C17.5056 13.3 17.6185 13.2613 17.6185 13.1839H18.2585C18.3338 13.3 18.4091 13.3388 18.522 13.3388C18.7479 13.3388 18.8608 13.0678 18.8232 12.7194C18.7855 12.2162 18.5973 12.1388 18.1456 12.1775ZM17.6185 12.9517C17.6185 12.8742 17.5056 12.8355 17.4679 12.8355C17.4303 12.8355 17.3173 12.8742 17.3173 12.9517H16.7527C16.7527 12.9129 16.715 12.8742 16.6397 12.7968V12.6033C17.1291 12.6033 17.6562 12.5646 18.1832 12.5646C18.1456 12.6807 18.1456 12.7968 18.1456 12.9129L17.6185 12.9517Z" fill="white"/>
<path d="M18.1466 12.1775C17.6572 12.1775 17.2054 12.1775 16.716 12.2162V12.0613C16.8666 11.8678 16.8289 11.8678 16.716 11.6742C16.6784 11.5968 16.6407 11.5194 16.5278 11.6742C16.4148 11.8291 16.4148 11.8678 16.5654 12.0613V12.2162H16.5278L17.0548 12.6807C17.4313 12.6807 17.8454 12.642 18.2218 12.642C18.1842 12.7581 18.1842 12.8742 18.1842 12.9904H17.6195C17.6195 12.9129 17.5066 12.8742 17.4689 12.8742C17.4313 12.8742 17.356 12.9129 17.356 12.9517L17.6195 13.1839V13.1452H18.2595C18.3348 13.2613 18.4101 13.3 18.523 13.3C18.7489 13.3 18.8618 13.0291 18.8242 12.6807C18.7865 12.2162 18.5983 12.1388 18.1466 12.1775Z" fill="#CFE7E8"/>
</svg>
