<svg width="30" height="28" viewBox="0 0 30 28" fill="none" xmlns="http://www.w3.org/2000/svg">
<path d="M4.33269 16.1665L6.43221 24.5646C6.49126 24.8008 6.52078 24.9189 6.55571 25.022C6.89691 26.0294 7.80404 26.7376 8.86404 26.8243C8.97255 26.8332 9.09428 26.8332 9.33774 26.8332C9.6426 26.8332 9.79504 26.8332 9.92345 26.8208C11.1927 26.6977 12.1971 25.6932 12.3202 24.424C12.3327 24.2956 12.3327 24.1431 12.3327 23.8383V4.83322M23.666 15.4999C26.2433 15.4999 28.3327 13.4105 28.3327 10.8332C28.3327 8.25589 26.2433 6.16655 23.666 6.16655M12.666 4.83322H7.66602C4.35231 4.83322 1.66601 7.51951 1.66602 10.8332C1.66602 14.1469 4.35231 16.8332 7.66602 16.8332H12.666C15.0213 16.8332 17.9023 18.0957 20.1251 19.3074C21.4218 20.0143 22.0701 20.3677 22.4948 20.3157C22.8885 20.2675 23.1863 20.0907 23.4171 19.768C23.666 19.4201 23.666 18.7239 23.666 17.3315V4.33493C23.666 2.94254 23.666 2.24635 23.4171 1.8984C23.1863 1.57575 22.8885 1.39895 22.4948 1.35072C22.0701 1.29871 21.4218 1.65215 20.1251 2.35902C17.9023 3.5707 15.0212 4.83322 12.666 4.83322Z" stroke="#1A1A1A" stroke-width="2" stroke-linecap="round" stroke-linejoin="round"/>
</svg>
