<svg width="22" height="22" viewBox="0 0 22 22" fill="none" xmlns="http://www.w3.org/2000/svg">
<path d="M1.00098 10.9996L10.6432 15.8207C10.7744 15.8863 10.84 15.9191 10.9088 15.932C10.9697 15.9434 11.0322 15.9434 11.0932 15.932C11.162 15.9191 11.2276 15.8863 11.3587 15.8207L21.001 10.9996M1.00098 15.9996L10.6432 20.8207C10.7744 20.8863 10.84 20.9191 10.9088 20.932C10.9697 20.9434 11.0322 20.9434 11.0932 20.932C11.162 20.9191 11.2276 20.8863 11.3587 20.8207L21.001 15.9996M1.00098 5.99958L10.6432 1.17846C10.7744 1.11287 10.84 1.08008 10.9088 1.06717C10.9697 1.05574 11.0322 1.05574 11.0932 1.06717C11.162 1.08008 11.2276 1.11287 11.3587 1.17846L21.001 5.99958L11.3587 10.8207C11.2276 10.8863 11.162 10.9191 11.0932 10.932C11.0322 10.9434 10.9697 10.9434 10.9088 10.932C10.84 10.9191 10.7744 10.8863 10.6432 10.8207L1.00098 5.99958Z" stroke="#532494" stroke-width="2" stroke-linecap="round" stroke-linejoin="round"/>
</svg>
