<svg width="20" height="21" viewBox="0 0 20 21" fill="none" xmlns="http://www.w3.org/2000/svg">
<path d="M14.0039 6.99983V3.50048C14.0039 2.66874 14.0039 2.25287 13.8287 1.9973C13.6756 1.77401 13.4386 1.62232 13.1717 1.57691C12.8662 1.52493 12.4886 1.6992 11.7334 2.04775L2.86292 6.14182C2.18941 6.45267 1.85266 6.6081 1.60601 6.84915C1.38796 7.06225 1.22152 7.32238 1.11941 7.60966C1.00391 7.93462 1.00391 8.30551 1.00391 9.04729V13.9998M14.5039 13.4998H14.5139M1.00391 10.1998L1.00391 16.7998C1.00391 17.9199 1.00391 18.48 1.22189 18.9078C1.41364 19.2841 1.7196 19.5901 2.09593 19.7818C2.52375 19.9998 3.0838 19.9998 4.20391 19.9998H15.8039C16.924 19.9998 17.4841 19.9998 17.9119 19.7818C18.2882 19.5901 18.5942 19.2841 18.7859 18.9078C19.0039 18.48 19.0039 17.9199 19.0039 16.7998V10.1998C19.0039 9.07972 19.0039 8.51967 18.7859 8.09185C18.5942 7.71552 18.2882 7.40956 17.9119 7.21782C17.4841 6.99983 16.924 6.99983 15.8039 6.99983L4.20391 6.99983C3.0838 6.99983 2.52375 6.99983 2.09593 7.21781C1.7196 7.40956 1.41364 7.71552 1.22189 8.09185C1.00391 8.51967 1.00391 9.07972 1.00391 10.1998ZM15.0039 13.4998C15.0039 13.776 14.78 13.9998 14.5039 13.9998C14.2278 13.9998 14.0039 13.776 14.0039 13.4998C14.0039 13.2237 14.2278 12.9998 14.5039 12.9998C14.78 12.9998 15.0039 13.2237 15.0039 13.4998Z" stroke="currentColor" stroke-width="2" stroke-linecap="round" stroke-linejoin="round"/>
</svg>
